<svg xmlns="http://www.w3.org/2000/svg" version="1.1" xmlns:xlink="http://www.w3.org/1999/xlink" xmlns:svgjs="http://svgjs.com/svgjs" width="1920" height="1080" preserveAspectRatio="none" viewBox="0 0 1920 1080"><g mask="url(&quot;#SvgjsMask1060&quot;)" fill="none"><rect width="1920" height="1080" x="0" y="0" fill="rgba(223, 133, 133, 1)"></rect><path d="M0,466.606C98.316,455.654,202.527,497.31,290.388,451.853C380.998,404.973,432.787,309.702,479.031,218.766C526.92,124.595,581.961,22.899,561.202,-80.689C540.69,-183.046,427.919,-233.921,370.801,-321.301C301.304,-427.619,301.429,-586.588,190.299,-648.098C78.552,-709.949,-66.172,-676.529,-184.607,-628.715C-297.224,-583.25,-385.937,-493.042,-449.743,-389.705C-507.516,-296.139,-501.852,-182.899,-526.105,-75.642C-552.913,42.91,-636.821,158.15,-599.806,273.922C-562.256,391.367,-452.567,483.828,-335.174,521.54C-225.155,556.883,-114.846,479.4,0,466.606" fill="#d86969"></path><path d="M1920 1945.7150000000001C2079.701 1932.31 2152.11 1737.529 2284.987 1647.931 2413.656 1561.17 2593.79 1554.7930000000001 2685.456 1429.5720000000001 2783.317 1295.8890000000001 2809.19 1119.381 2792.571 954.543 2775.55 785.713 2697.8869999999997 630.3330000000001 2591.5460000000003 498.102 2482.413 362.399 2350.874 228.66099999999994 2180.363 193.28499999999997 2013.744 158.71699999999998 1841.155 225.69600000000003 1694.492 311.99 1567.584 386.66099999999994 1495.767 519.475 1415.8220000000001 643.1279999999999 1346.37 750.552 1304.625 865.37 1259.364 985.015 1200.649 1140.225 1056.058 1292.9 1110.75 1449.5720000000001 1164.685 1604.074 1373.8780000000002 1627.164 1513.3899999999999 1712.6979999999999 1649.3220000000001 1796.036 1761.114 1959.0520000000001 1920 1945.7150000000001" fill="#e6a1a1"></path></g><defs><mask id="SvgjsMask1060"><rect width="1920" height="1080" fill="#ffffff"></rect></mask></defs></svg>